<svg xmlns="http://www.w3.org/2000/svg" width="256" height="256" fill="none" viewBox="0 0 256 256"><g clip-path="url(#clip0_367_1502)"><path fill="#053EFF" d="M101.056 112.144C104.304 109.792 105.856 105.888 105.856 100.496C105.97 97.9559 105.436 95.4285 104.304 93.152C103.288 91.2982 101.783 89.7594 99.9516 88.704C98.0474 87.558 95.9392 86.7919 93.7436 86.448C91.354 85.999 88.9269 85.7793 86.4956 85.792H60.1436V115.696H88.6396C93.6476 115.744 97.8076 114.544 101.056 112.144ZM105.504 139.152C101.808 136.352 96.9116 134.96 90.7996 134.96H60.1436V170.208H90.1916C92.9916 170.208 95.5996 169.952 98.0956 169.408C100.592 168.864 102.848 168 104.752 166.704C106.656 165.456 108.208 163.76 109.344 161.6C110.48 159.44 111.04 156.656 111.04 153.296C111.04 146.704 109.2 142 105.504 139.152Z"/><path fill="#053EFF" d="M232 0H24C10.8 0 0 10.8 0 24V232C0 245.2 10.8 256 24 256H232C245.2 256 256 245.2 256 232V24C256 10.8 245.2 0 232 0ZM167.808 67.344H219.664V80H167.808V67.344ZM135.408 171.6C133.004 176.209 129.545 180.183 125.312 183.2C120.899 186.267 115.974 188.521 110.768 189.856C105.318 191.302 99.7021 192.023 94.064 192H32.016V64.048H92.32C98.416 64.048 103.968 64.592 109.024 65.648C114.032 66.704 118.32 68.496 121.92 70.944C125.472 73.392 128.272 76.64 130.272 80.688C132.224 84.688 133.216 89.744 133.216 95.696C133.216 102.144 131.76 107.488 128.816 111.792C125.872 116.096 121.568 119.584 115.76 122.336C123.664 124.592 129.456 128.592 133.312 134.24C137.216 139.936 139.12 146.784 139.12 154.784C139.168 161.328 137.92 166.928 135.424 171.584L135.408 171.6ZM239.856 151.808H173.008C173.008 159.104 175.504 166.064 179.312 169.808C183.12 173.504 188.608 175.408 195.76 175.408C200.912 175.408 205.312 174.112 209.056 171.504C212.752 168.912 215.008 166.16 215.856 163.312H238.256C234.656 174.464 229.2 182.416 221.76 187.216C214.416 192.016 205.408 194.416 194.96 194.416C187.664 194.416 181.104 193.216 175.216 190.912C169.573 188.716 164.474 185.32 160.272 180.96C156.136 176.487 152.938 171.232 150.864 165.504C148.593 159.172 147.461 152.487 147.52 145.76C147.52 138.816 148.672 132.352 150.928 126.352C153.062 120.584 156.355 115.314 160.604 110.867C164.853 106.42 169.967 102.891 175.632 100.496C181.739 97.9361 188.307 96.6616 194.928 96.752C202.784 96.752 209.632 98.256 215.52 101.344C221.376 104.4 226.176 108.496 229.968 113.648C233.76 118.8 236.416 124.656 238.112 131.248C239.76 137.744 240.304 144.608 239.856 151.808Z"/><path fill="#053EFF" d="M194.144 115.952C190.096 115.952 186.688 116.656 184.048 118.048C181.408 119.44 179.248 121.152 177.6 123.152C176.027 125.076 174.867 127.304 174.192 129.696C173.58 131.678 173.194 133.723 173.04 135.792H214.448C213.856 129.296 211.6 124.496 208.592 121.136C205.488 117.728 200.4 115.936 194.144 115.936V115.952Z"/></g><defs><clipPath id="clip0_367_1502"><rect width="256" height="256" fill="#fff"/></clipPath></defs></svg>