<svg width="256" height="256" viewBox="0 0 256 256" fill="none" xmlns="http://www.w3.org/2000/svg">
<g clip-path="url(#clip0_405_1502)">
<path d="M60 1.5H196C228.309 1.5 254.5 27.6913 254.5 60V196C254.5 228.309 228.309 254.5 196 254.5H60C27.6913 254.5 1.5 228.309 1.5 196V60C1.5 27.6913 27.6913 1.5 60 1.5Z" fill="black" stroke="white" stroke-width="3"/>
<path d="M61.1584 171.386H61.156H37.5V84.5H61.687C70.8351 84.5 76.8174 88.1542 80.5498 92.9316C84.3277 97.7671 85.8672 103.847 85.87 108.686L85.875 147.217C85.875 147.217 85.875 147.217 85.875 147.217C85.875 152.06 84.3752 158.137 80.56 162.966C76.7916 167.735 70.6784 171.401 61.1584 171.386ZM69.7986 100.982L69.7972 100.981C67.4996 99.2607 65.0829 98.319 62.582 98.319H53.127H51.627V99.819V156.572V158.072H53.127H62.587C65.0879 158.072 67.5045 157.13 69.8029 155.41L69.8033 155.41C72.3634 153.492 73.558 150.636 73.558 147.114V109.277V109.275C73.5535 105.757 72.3498 102.898 69.7986 100.982Z" fill="white" stroke="white" stroke-width="3"/>
<path d="M107.725 84.516H140.464L140.459 97.553H113.073H111.573V99.053V119.924V121.424H113.073H129.231V134.488H113.073H111.573V135.988V156.854V158.354H113.073H140.465V171.418H108.253H108.233L108.214 171.419C103.002 171.555 98.6607 167.43 98.5199 162.203V94.256V94.2379L98.5194 94.2198C98.3935 88.995 102.518 84.6568 107.725 84.516ZM186.757 145.177L202.496 84.522H217.05L196.727 161.193C193.269 169.198 188.75 171.805 184.887 171.471C180.878 171.126 176.617 167.575 173.85 161.192L153.489 84.522H168.038L183.853 145.178L185.308 150.759L186.757 145.177Z" fill="white" stroke="white" stroke-width="3"/>
</g>
<defs>
<clipPath id="clip0_405_1502">
<rect width="256" height="256" fill="white"/>
</clipPath>
</defs>
</svg>
