<svg xmlns="http://www.w3.org/2000/svg" width="256" height="250" fill="none" viewBox="0 0 256 250"><g clip-path="url(#clip0_366_1505)"><path fill="#000" d="M127.456 1.01186H128.42C151.65 1.01186 173.388 7.36341 192.008 18.419L191.438 18.0978C210.491 29.1491 226.369 44.9308 237.536 63.9161L237.857 64.517C249.148 83.9111 255.063 105.965 254.995 128.406C254.995 184.419 218.906 232.02 168.715 249.199L167.814 249.468C166.691 249.807 165.504 249.877 164.349 249.674C163.193 249.471 162.102 248.999 161.162 248.298L161.183 248.308C160.503 247.7 159.96 246.956 159.589 246.124C159.217 245.292 159.026 244.391 159.027 243.48V243.334V243.345L159.11 230.642C159.166 222.505 159.193 215.065 159.193 208.323C159.577 204.003 159.003 199.651 157.511 195.578C156.019 191.505 153.646 187.811 150.562 184.761C156.571 184.185 162.523 183.128 168.363 181.601L167.576 181.777C173.147 180.251 178.499 178.016 183.501 175.125L183.18 175.301C188.284 172.51 192.824 168.793 196.567 164.339L196.629 164.266C200.585 159.188 203.538 153.404 205.333 147.222L205.426 146.859C207.713 139.19 208.862 131.227 208.835 123.225L208.824 121.816V121.888L208.835 121.142C208.85 108.723 204.151 96.7618 195.686 87.6748L195.717 87.7059C197.458 83.1468 198.463 77.8832 198.463 72.3813C198.471 65.884 197.042 59.4654 194.277 53.5857L194.391 53.8551C189.783 52.9984 185.021 53.6563 180.818 55.7305L180.942 55.6787C175.488 57.6711 170.241 60.1905 165.275 63.2011L165.669 62.9732L159.359 66.9519C149.806 64.2165 138.833 62.6416 127.498 62.6416C116.162 62.6416 105.189 64.2165 94.7866 67.1592L95.6259 66.9519C93.8576 65.7362 91.5055 64.2407 88.5698 62.4655C84.3418 60.0741 79.9355 58.013 75.39 56.3004L74.7062 56.0725C70.3344 53.7969 65.3369 53.018 60.48 53.8551L60.6147 53.8344C57.9116 59.6353 56.5212 65.9609 56.5426 72.3606C56.5426 77.8625 57.5477 83.1365 59.392 87.996L59.2884 87.6955C50.6514 96.9751 45.9525 109.244 46.1812 121.919V121.878L46.1708 123.225C46.1708 131.607 47.4142 139.71 49.7352 147.336L49.5797 146.745C51.538 153.408 54.5118 159.2 58.3869 164.287L58.2937 164.152C61.926 168.626 66.3825 172.361 71.4216 175.156L71.6496 175.27C76.1257 177.881 81.3168 180.088 86.7772 181.632L87.2539 181.746C92.0823 183.041 97.864 184.098 103.78 184.689L104.257 184.73C99.7912 189.165 96.8175 195.092 96.1336 201.702L96.1233 201.827C93.8167 202.931 91.3847 203.752 88.8806 204.272L88.663 204.313C86.0105 204.842 82.9746 205.142 79.8558 205.142H79.172H79.203C75.2795 205.068 71.4697 203.811 68.2717 201.536L68.3339 201.578C64.5297 198.938 61.4021 195.438 59.2055 191.362L59.133 191.206C57.139 187.802 54.4227 184.877 51.1754 182.637L51.0821 182.575C48.6708 180.773 45.9438 179.438 43.0417 178.638L42.8759 178.596L39.5602 178.099C37.8962 177.976 36.2262 178.239 34.68 178.866L34.7525 178.835C33.8684 179.332 33.5921 179.967 33.9236 180.741C34.3277 181.632 34.8251 182.399 35.426 183.072L35.4157 183.062C36.0477 183.808 36.7627 184.461 37.5398 185.031L37.5708 185.051L38.7313 185.88C41.6636 187.414 44.0778 189.548 45.9118 192.128L45.9532 192.19C47.9323 194.646 49.673 197.423 51.0718 200.397L51.1754 200.645L52.8332 204.458C54.232 208.624 56.7706 212.105 60.0862 214.623L60.138 214.664C63.2465 217.089 66.9973 218.83 71.0901 219.617L71.2558 219.638C74.6751 220.301 78.6539 220.715 82.7156 220.798H82.7881C83.2544 220.819 83.7932 220.819 84.3423 220.819C87.0467 220.819 89.6992 220.601 92.2895 220.177L92.0098 220.218L95.8228 219.555C95.8228 223.762 95.8504 228.659 95.9057 234.247C95.9609 239.836 95.9886 242.851 95.9886 243.293V243.438C95.9886 245.355 95.1596 247.075 93.8334 248.266C92.8906 248.975 91.7825 249.449 90.6203 249.649C89.4582 249.849 88.2652 249.769 87.1399 249.417L87.1917 249.427C36.1203 231.927 0.0625 184.326 0.0625 128.302C0.0625 104.802 6.40369 82.7842 17.4801 63.8642L17.1485 64.4652C28.1997 45.4123 43.9814 29.5342 62.9667 18.3672L63.5677 18.046C82.6332 6.82103 104.368 0.933655 126.493 1.0015H127.508H127.456V1.01186ZM48.2949 184.057C48.6265 183.283 48.2397 182.62 47.1344 182.067C46.0292 181.736 45.3108 181.846 44.9793 182.399C44.6477 183.173 45.0345 183.836 46.1397 184.388C47.1344 185.051 47.8528 184.941 48.2949 184.057ZM53.4445 189.704C54.2182 189.151 54.1077 188.267 53.113 187.051C52.0078 186.057 51.1236 185.891 50.4605 186.554C49.6868 187.106 49.7973 187.991 50.792 189.206C51.8903 190.291 52.7745 190.453 53.4445 189.693V189.704ZM58.418 197.164C59.4127 196.39 59.4127 195.34 58.418 194.014C57.5339 192.577 56.5944 192.246 55.5997 193.019C54.605 193.572 54.605 194.567 55.5997 196.003C56.5944 197.44 57.5339 197.827 58.418 197.164ZM65.3809 204.137C66.2651 203.253 66.044 202.203 64.7178 200.987C63.3915 199.661 62.2863 199.495 61.4021 200.49C60.4074 201.374 60.6285 202.424 62.0652 203.64C63.3915 204.966 64.4967 205.118 65.3809 204.096V204.137ZM74.8409 208.282C75.1725 207.066 74.4541 206.182 72.6857 205.629C71.0279 205.187 69.9779 205.574 69.5358 206.79C69.0937 208.005 69.8121 208.834 71.691 209.276C73.3488 209.946 74.3988 209.615 74.8409 208.282ZM85.2956 209.111C85.2956 207.674 84.3561 207.066 82.4773 207.287C80.7089 207.287 79.8247 207.895 79.8247 209.111C79.8247 210.547 80.7642 211.155 82.643 210.934C84.4114 210.941 85.2956 210.326 85.2956 209.111ZM94.9213 207.453C94.7003 206.237 93.7056 205.74 91.9372 205.961C90.1689 206.292 89.3952 207.121 89.6163 208.448C89.8373 209.774 90.832 210.216 92.6004 209.774C94.3687 209.332 95.1355 208.558 94.9213 207.453Z"/></g><defs><clipPath id="clip0_366_1505"><rect width="256" height="249.929" fill="#fff"/></clipPath></defs></svg>