<svg width="256" height="256" viewBox="0 0 256 256" fill="none" xmlns="http://www.w3.org/2000/svg">
<g clip-path="url(#clip0_342_1502)">
<path d="M196 0H60C26.8629 0 0 26.8629 0 60V196C0 229.137 26.8629 256 60 256H196C229.137 256 256 229.137 256 196V60C256 26.8629 229.137 0 196 0Z" fill="url(#paint0_radial_342_1502)"/>
<path d="M196 0H60C26.8629 0 0 26.8629 0 60V196C0 229.137 26.8629 256 60 256H196C229.137 256 256 229.137 256 196V60C256 26.8629 229.137 0 196 0Z" fill="url(#paint1_radial_342_1502)"/>
<path d="M128.009 28C100.851 28 97.442 28.119 86.776 28.604C76.13 29.092 68.863 30.777 62.505 33.25C55.927 35.804 50.348 39.221 44.79 44.781C39.227 50.34 35.81 55.919 33.248 62.494C30.768 68.854 29.081 76.124 28.602 86.765C28.125 97.432 28 100.842 28 128.001C28 155.16 28.12 158.558 28.604 169.224C29.094 179.87 30.779 187.137 33.25 193.495C35.806 200.073 39.223 205.652 44.783 211.21C50.34 216.773 55.919 220.198 62.492 222.752C68.855 225.225 76.123 226.91 86.767 227.398C97.434 227.883 100.84 228.002 127.997 228.002C155.158 228.002 158.556 227.883 169.222 227.398C179.868 226.91 187.143 225.225 193.506 222.752C200.081 220.198 205.652 216.773 211.208 211.21C216.771 205.652 220.187 200.073 222.75 193.498C225.208 187.137 226.896 179.868 227.396 169.226C227.875 158.56 228 155.16 228 128.001C228 100.842 227.875 97.434 227.396 86.767C226.896 76.121 225.208 68.855 222.75 62.497C220.187 55.919 216.771 50.34 211.208 44.781C205.646 39.219 200.083 35.802 193.5 33.251C187.125 30.777 179.854 29.091 169.208 28.604C158.541 28.119 155.145 28 127.978 28H128.009ZM119.038 46.021C121.701 46.017 124.672 46.021 128.009 46.021C154.71 46.021 157.874 46.117 168.418 46.596C178.168 47.042 183.46 48.671 186.985 50.04C191.652 51.852 194.979 54.019 198.477 57.52C201.977 61.02 204.143 64.353 205.96 69.02C207.329 72.54 208.96 77.832 209.404 87.582C209.883 98.124 209.987 101.29 209.987 127.978C209.987 154.666 209.883 157.833 209.404 168.374C208.958 178.124 207.329 183.416 205.96 186.937C204.148 191.604 201.977 194.927 198.477 198.425C194.977 201.925 191.654 204.091 186.985 205.904C183.464 207.279 178.168 208.904 168.418 209.35C157.876 209.829 154.71 209.933 128.009 209.933C101.307 209.933 98.142 209.829 87.601 209.35C77.851 208.9 72.559 207.271 69.031 205.902C64.365 204.089 61.031 201.923 57.531 198.423C54.031 194.923 51.865 191.598 50.048 186.929C48.679 183.408 47.048 178.116 46.604 168.366C46.125 157.824 46.029 154.658 46.029 127.953C46.029 101.249 46.125 98.099 46.604 87.557C47.05 77.807 48.679 72.515 50.048 68.99C51.861 64.323 54.031 60.99 57.532 57.49C61.032 53.99 64.365 51.823 69.032 50.007C72.557 48.632 77.851 47.007 87.601 46.559C96.826 46.142 100.401 46.017 119.038 45.996V46.021ZM181.389 62.625C174.764 62.625 169.389 67.995 169.389 74.621C169.389 81.246 174.764 86.621 181.389 86.621C188.014 86.621 193.389 81.246 193.389 74.621C193.389 67.996 188.014 62.621 181.389 62.621V62.625ZM128.009 76.646C99.649 76.646 76.655 99.64 76.655 128.001C76.655 156.362 99.649 179.345 128.009 179.345C156.37 179.345 179.356 156.362 179.356 128.001C179.356 99.641 156.368 76.646 128.007 76.646H128.009ZM128.009 94.667C146.418 94.667 161.343 109.59 161.343 128.001C161.343 146.41 146.418 161.335 128.009 161.335C109.599 161.335 94.676 146.41 94.676 128.001C94.676 109.59 109.599 94.667 128.009 94.667Z" fill="white"/>
</g>
<defs>
<radialGradient id="paint0_radial_342_1502" cx="0" cy="0" r="1" gradientUnits="userSpaceOnUse" gradientTransform="translate(68 275.717) rotate(-90) scale(253.715 235.975)">
<stop stop-color="#FFDD55"/>
<stop offset="0.1" stop-color="#FFDD55"/>
<stop offset="0.5" stop-color="#FF543E"/>
<stop offset="1" stop-color="#C837AB"/>
</radialGradient>
<radialGradient id="paint1_radial_342_1502" cx="0" cy="0" r="1" gradientUnits="userSpaceOnUse" gradientTransform="translate(-42.881 18.441) rotate(78.681) scale(113.412 467.488)">
<stop stop-color="#3771C8"/>
<stop offset="0.128" stop-color="#3771C8"/>
<stop offset="1" stop-color="#6600FF" stop-opacity="0"/>
</radialGradient>
<clipPath id="clip0_342_1502">
<rect width="256" height="256" fill="white"/>
</clipPath>
</defs>
</svg>
