<svg width="256" height="336" viewBox="0 0 256 336" fill="none" xmlns="http://www.w3.org/2000/svg">
<path d="M208 64.9599C196.904 64.9673 186.152 68.8191 177.576 75.8598C168.999 82.9005 163.127 92.6953 160.958 103.578C158.789 114.46 160.457 125.758 165.679 135.549C170.901 145.34 179.354 153.019 189.6 157.28C187.164 163.119 183.052 168.105 177.784 171.608C172.515 175.111 166.327 176.973 160 176.96H96.0001C84.7207 177.007 73.664 180.103 64.0001 185.92V94.0799C74.6755 90.3056 83.6729 82.8788 89.4022 73.1123C95.1314 63.3457 97.2235 51.8681 95.3088 40.7082C93.3941 29.5483 87.5957 19.4246 78.9386 12.1263C70.2815 4.82801 59.3231 0.825134 48.0001 0.825134C36.6771 0.825134 25.7186 4.82801 17.0615 12.1263C8.40444 19.4246 2.60611 29.5483 0.691369 40.7082C-1.22337 51.8681 0.868757 63.3457 6.59799 73.1123C12.3272 82.8788 21.3247 90.3056 32.0001 94.0799V227.84C21.4559 231.632 12.5706 238.993 6.8841 248.649C1.19757 258.304 -0.931849 269.644 0.864884 280.704C2.66162 291.765 8.27126 301.848 16.7217 309.207C25.1721 316.565 35.9307 320.736 47.133 320.995C58.3353 321.254 69.2753 317.586 78.0572 310.626C86.839 303.667 92.9092 293.854 95.2158 282.888C97.5224 271.923 95.92 260.496 90.6863 250.588C85.4526 240.68 76.9175 232.916 66.5601 228.64C68.9853 222.826 73.0726 217.857 78.3097 214.356C83.5468 210.856 89.7006 208.978 96.0001 208.96H160C174.637 208.957 188.831 203.937 200.216 194.736C211.6 185.536 219.486 172.711 222.56 158.4C233.257 154.765 242.33 147.474 248.18 137.809C254.031 128.144 256.285 116.725 254.545 105.562C252.806 94.3984 247.184 84.2066 238.671 76.7799C230.157 69.3532 219.296 65.1676 208 64.9599ZM48.0001 32.96C51.1646 32.96 54.258 33.8983 56.8892 35.6564C59.5204 37.4145 61.5711 39.9134 62.7822 42.837C63.9932 45.7606 64.31 48.9777 63.6926 52.0814C63.0753 55.1851 61.5514 58.036 59.3138 60.2737C57.0761 62.5113 54.2252 64.0351 51.1215 64.6525C48.0178 65.2699 44.8008 64.953 41.8772 63.742C38.9535 62.531 36.4547 60.4803 34.6966 57.8491C32.9385 55.2179 32.0001 52.1245 32.0001 48.96C32.0001 44.7165 33.6858 40.6468 36.6864 37.6462C39.687 34.6457 43.7566 32.96 48.0001 32.96ZM48.0001 288.96C44.8356 288.96 41.7421 288.021 39.111 286.263C36.4798 284.505 34.429 282.006 33.218 279.083C32.007 276.159 31.6902 272.942 32.3075 269.838C32.9249 266.735 34.4487 263.884 36.6864 261.646C38.924 259.409 41.7749 257.885 44.8786 257.267C47.9823 256.65 51.1994 256.967 54.123 258.178C57.0466 259.389 59.5455 261.44 61.3036 264.071C63.0617 266.702 64.0001 269.795 64.0001 272.96C64.0001 277.203 62.3144 281.273 59.3138 284.274C56.3132 287.274 52.2435 288.96 48.0001 288.96ZM208 128.96C204.836 128.96 201.742 128.022 199.111 126.263C196.48 124.505 194.429 122.006 193.218 119.083C192.007 116.159 191.69 112.942 192.307 109.838C192.925 106.735 194.449 103.884 196.686 101.646C198.924 99.4086 201.775 97.8847 204.879 97.2674C207.982 96.65 211.199 96.9669 214.123 98.1779C217.047 99.3889 219.545 101.44 221.304 104.071C223.062 106.702 224 109.795 224 112.96C224 117.203 222.314 121.273 219.314 124.274C216.313 127.274 212.243 128.96 208 128.96Z" fill="#818CF8"/>
</svg>
