<svg width="256" height="256" viewBox="0 0 256 256" fill="none" xmlns="http://www.w3.org/2000/svg">
<g clip-path="url(#clip0_368_1506)">
<path d="M128 0C57.308 0 0 57.309 0 128C0 198.696 57.309 256 128 256C198.697 256 256 198.696 256 128C256 57.314 198.697 0.007 127.998 0.007L127.999 0.001L128 0ZM186.699 184.614C184.406 188.374 179.484 189.566 175.724 187.258C145.671 168.901 107.839 164.743 63.284 174.923C61.2208 175.393 59.0556 175.023 57.2644 173.897C55.4732 172.771 54.2026 170.979 53.732 168.916C53.4975 167.895 53.4667 166.837 53.6415 165.804C53.8163 164.771 54.1931 163.782 54.7504 162.895C55.3077 162.008 56.0346 161.239 56.8894 160.633C57.7442 160.027 58.7102 159.595 59.732 159.363C108.492 148.223 150.315 153.019 184.055 173.639C187.815 175.947 189.007 180.854 186.699 184.614ZM202.366 149.761C199.476 154.456 193.332 155.939 188.64 153.05C154.234 131.902 101.787 125.777 61.092 138.13C55.814 139.724 50.24 136.75 48.638 131.481C47.048 126.203 50.024 120.639 55.293 119.035C101.778 104.929 159.568 111.762 199.08 136.042C203.772 138.932 205.255 145.075 202.366 149.761ZM203.711 113.468C162.457 88.964 94.394 86.71 55.007 98.666C48.682 100.584 41.993 97.013 40.077 90.688C38.16 84.36 41.727 77.676 48.057 75.753C93.27 62.027 168.434 64.68 215.929 92.876C221.631 96.252 223.495 103.6 220.117 109.281C216.755 114.971 209.387 116.846 203.717 113.468H203.711Z" fill="#1ED760"/>
</g>
<defs>
<clipPath id="clip0_368_1506">
<rect width="256" height="256" fill="white"/>
</clipPath>
</defs>
</svg>
