<svg width="256" height="256" viewBox="0 0 256 256" fill="none" xmlns="http://www.w3.org/2000/svg">
<g clip-path="url(#clip0_342_1507)">
<path d="M196 0H60C26.8629 0 0 26.8629 0 60V196C0 229.137 26.8629 256 60 256H196C229.137 256 256 229.137 256 196V60C256 26.8629 229.137 0 196 0Z" fill="white"/>
<path d="M196 0H60C26.8629 0 0 26.8629 0 60V196C0 229.137 26.8629 256 60 256H196C229.137 256 256 229.137 256 196V60C256 26.8629 229.137 0 196 0Z" fill="#1D9BF0"/>
<path d="M199.572 91.411C199.682 92.998 199.682 94.585 199.682 96.187C199.682 144.984 162.534 201.262 94.607 201.262V201.232C74.5402 201.261 54.889 195.514 38 184.677C40.918 185.028 43.85 185.203 46.79 185.21C63.4216 185.223 79.5748 179.645 92.654 169.371C84.948 169.225 77.4801 166.675 71.2944 162.077C65.1087 157.479 60.5145 151.063 58.154 143.726C63.6868 144.793 69.3906 144.575 74.826 143.09C57.598 139.609 45.203 124.472 45.203 106.892V106.424C50.3389 109.285 56.0868 110.87 61.963 111.046C45.737 100.201 40.735 78.614 50.533 61.736C59.8043 73.145 71.3719 82.476 84.4845 89.123C97.5971 95.77 111.961 99.5843 126.644 100.318C125.18 94.0164 125.396 87.4409 127.271 81.2491C129.146 75.0573 132.613 69.4662 137.327 65.035C152.201 51.053 175.594 51.77 189.576 66.636C197.846 65.0032 205.777 61.9714 213.027 57.671C210.27 66.2217 204.501 73.4797 196.793 78.095C204.114 77.2325 211.263 75.2729 218 72.282C213.044 79.704 206.804 86.1812 199.572 91.411Z" fill="white"/>
</g>
<defs>
<clipPath id="clip0_342_1507">
<rect width="256" height="256" fill="white"/>
</clipPath>
</defs>
</svg>
